<svg xmlns="http://www.w3.org/2000/svg" xmlns:xlink="http://www.w3.org/1999/xlink" width="500" zoomAndPan="magnify" viewBox="0 0 375 374.999991" height="500" preserveAspectRatio="xMidYMid meet" version="1.0"><defs><g/><clipPath id="dc4c03feff"><path d="M 114.519531 110.898438 L 260.769531 110.898438 L 260.769531 263.898438 L 114.519531 263.898438 Z M 114.519531 110.898438 " clip-rule="nonzero"/></clipPath></defs><g clip-path="url(#dc4c03feff)"><path fill="#6c63ff" d="M 208.804688 110.976562 L 208.804688 113.09375 L 221.925781 113.09375 C 226.800781 113.09375 230.328125 113.765625 232.558594 115.058594 C 234.789062 116.351562 235.878906 118.625 235.878906 121.882812 C 235.84375 123.078125 235.722656 124.269531 235.515625 125.449219 L 238.160156 126.328125 C 239.765625 121.832031 241.582031 118.574219 243.605469 116.660156 C 245.628906 114.75 249.308594 113.09375 253.457031 113.09375 L 260.769531 113.09375 L 260.769531 110.976562 Z M 197.65625 245.214844 C 194.75 233.914062 190.808594 221.128906 185.832031 206.859375 L 159.640625 130.875 C 158.1875 126.894531 157.460938 123.585938 157.460938 121.054688 C 157.460938 118.523438 158.5 115.988281 160.574219 114.851562 C 162.648438 113.714844 165.65625 113.09375 169.492188 113.09375 L 176.804688 113.09375 L 176.804688 110.976562 L 114.519531 110.976562 L 114.519531 113.09375 L 117.113281 113.09375 C 120.796875 113.09375 123.804688 113.921875 126.136719 115.472656 C 128.472656 117.023438 130.339844 119.96875 131.894531 124.257812 L 181.109375 263.824219 L 193.558594 263.824219 L 202.269531 236.996094 L 200.300781 236.375 Z M 197.65625 245.214844 " fill-opacity="1" fill-rule="nonzero"/></g><g fill="#6c63ff" fill-opacity="1"><g transform="translate(209.100817, 222.51066)"><g><path d="M 3.179688 3.90625 C 3.570312 2.734375 1.636719 -1.285156 -0.257812 -4.136719 C 0.160156 -4.382812 0.507812 -4.84375 0.726562 -5.496094 C 1.480469 -7.75 1.035156 -10.886719 0.542969 -12.738281 C 0.527344 -12.839844 0.457031 -12.914062 0.371094 -12.941406 C 0.238281 -12.984375 0.109375 -12.882812 0.0664062 -12.753906 L 0.0234375 -12.625 C 0.511719 -10.773438 0.960938 -7.777344 0.25 -5.652344 C 0.0625 -5.089844 -0.242188 -4.757812 -0.546875 -4.570312 C -1.5 -5.902344 -2.367188 -6.914062 -2.929688 -7.101562 C -3.234375 -7.203125 -3.523438 -7.058594 -3.640625 -6.710938 C -3.929688 -5.84375 -2.859375 -4.425781 -1.6875 -4.035156 C -1.386719 -3.933594 -1.066406 -3.875 -0.808594 -3.933594 C 1.027344 -1.199219 3.019531 2.792969 2.703125 3.746094 C 2.671875 3.832031 2.542969 3.933594 2.371094 3.875 C 0.9375 3.398438 -2.414062 -1.289062 -3.164062 -2.648438 L -3.324219 -2.75 C -3.453125 -2.792969 -3.628906 -2.707031 -3.671875 -2.574219 C -3.6875 -2.53125 -3.671875 -2.429688 -3.640625 -2.375 C -2.890625 -1.015625 0.589844 3.859375 2.195312 4.398438 C 2.671875 4.554688 3.035156 4.339844 3.179688 3.90625 Z M -1.125 -4.425781 C -1.253906 -4.46875 -1.398438 -4.46875 -1.53125 -4.511719 C -2.398438 -4.800781 -3.308594 -5.972656 -3.132812 -6.496094 C -3.105469 -6.582031 -3.105469 -6.582031 -3.0625 -6.566406 C -2.671875 -6.4375 -1.933594 -5.613281 -1.125 -4.425781 Z M -1.125 -4.425781 "/></g></g></g><g fill="#6c63ff" fill-opacity="1"><g transform="translate(212.620943, 211.971448)"><g><path d="M -4.550781 -4.992188 C -4.523438 -5.078125 -4.507812 -5.121094 -4.582031 -5.195312 L -4.695312 -5.425781 C -4.871094 -5.628906 -5.027344 -5.875 -5.085938 -5.988281 C -5.117188 -6.046875 -5.203125 -6.078125 -5.246094 -6.089844 C -5.375 -6.132812 -5.535156 -6.089844 -5.578125 -5.960938 C -5.605469 -5.875 -5.59375 -5.773438 -5.5625 -5.714844 C -5.460938 -5.585938 -5.261719 -5.324219 -5.128906 -5.136719 L -5.015625 -4.90625 C -4.984375 -4.847656 -4.941406 -4.832031 -4.855469 -4.804688 C -4.726562 -4.761719 -4.59375 -4.863281 -4.550781 -4.992188 Z M 0.375 -0.261719 C 0.867188 -1.734375 0.265625 -7 -0.429688 -9.832031 C -0.457031 -9.890625 -0.527344 -9.964844 -0.617188 -9.992188 C -0.746094 -10.035156 -0.863281 -9.976562 -0.917969 -9.804688 L -0.964844 -9.675781 C -0.242188 -6.925781 0.304688 -1.777344 -0.144531 -0.433594 C -0.304688 0.0429688 -0.550781 0.203125 -0.984375 0.0585938 C -1.589844 -0.144531 -2.71875 -1.679688 -3.742188 -3.660156 C -3.773438 -3.71875 -3.800781 -3.777344 -3.886719 -3.804688 C -4.019531 -3.847656 -4.148438 -3.746094 -4.191406 -3.617188 C -4.21875 -3.53125 -4.234375 -3.488281 -4.207031 -3.429688 C -3.09375 -1.273438 -1.964844 0.257812 -1.144531 0.535156 C -0.449219 0.765625 0.128906 0.476562 0.375 -0.261719 Z M 0.375 -0.261719 "/></g></g></g><g fill="#6c63ff" fill-opacity="1"><g transform="translate(215.156012, 204.381485)"><g><path d="M 3.179688 3.90625 C 3.570312 2.734375 1.636719 -1.285156 -0.257812 -4.136719 C 0.160156 -4.382812 0.507812 -4.84375 0.726562 -5.496094 C 1.480469 -7.75 1.035156 -10.886719 0.542969 -12.738281 C 0.527344 -12.839844 0.457031 -12.914062 0.371094 -12.941406 C 0.238281 -12.984375 0.109375 -12.882812 0.0664062 -12.753906 L 0.0234375 -12.625 C 0.511719 -10.773438 0.960938 -7.777344 0.25 -5.652344 C 0.0625 -5.089844 -0.242188 -4.757812 -0.546875 -4.570312 C -1.5 -5.902344 -2.367188 -6.914062 -2.929688 -7.101562 C -3.234375 -7.203125 -3.523438 -7.058594 -3.640625 -6.710938 C -3.929688 -5.84375 -2.859375 -4.425781 -1.6875 -4.035156 C -1.386719 -3.933594 -1.066406 -3.875 -0.808594 -3.933594 C 1.027344 -1.199219 3.019531 2.792969 2.703125 3.746094 C 2.671875 3.832031 2.542969 3.933594 2.371094 3.875 C 0.9375 3.398438 -2.414062 -1.289062 -3.164062 -2.648438 L -3.324219 -2.75 C -3.453125 -2.792969 -3.628906 -2.707031 -3.671875 -2.574219 C -3.6875 -2.53125 -3.671875 -2.429688 -3.640625 -2.375 C -2.890625 -1.015625 0.589844 3.859375 2.195312 4.398438 C 2.671875 4.554688 3.035156 4.339844 3.179688 3.90625 Z M -1.125 -4.425781 C -1.253906 -4.46875 -1.398438 -4.46875 -1.53125 -4.511719 C -2.398438 -4.800781 -3.308594 -5.972656 -3.132812 -6.496094 C -3.105469 -6.582031 -3.105469 -6.582031 -3.0625 -6.566406 C -2.671875 -6.4375 -1.933594 -5.613281 -1.125 -4.425781 Z M -1.125 -4.425781 "/></g></g></g><g fill="#6c63ff" fill-opacity="1"><g transform="translate(218.676138, 193.842273)"><g><path d="M -4.550781 -4.992188 C -4.523438 -5.078125 -4.507812 -5.121094 -4.582031 -5.195312 L -4.695312 -5.425781 C -4.871094 -5.628906 -5.027344 -5.875 -5.085938 -5.988281 C -5.117188 -6.046875 -5.203125 -6.078125 -5.246094 -6.089844 C -5.375 -6.132812 -5.535156 -6.089844 -5.578125 -5.960938 C -5.605469 -5.875 -5.59375 -5.773438 -5.5625 -5.714844 C -5.460938 -5.585938 -5.261719 -5.324219 -5.128906 -5.136719 L -5.015625 -4.90625 C -4.984375 -4.847656 -4.941406 -4.832031 -4.855469 -4.804688 C -4.726562 -4.761719 -4.59375 -4.863281 -4.550781 -4.992188 Z M 0.375 -0.261719 C 0.867188 -1.734375 0.265625 -7 -0.429688 -9.832031 C -0.457031 -9.890625 -0.527344 -9.964844 -0.617188 -9.992188 C -0.746094 -10.035156 -0.863281 -9.976562 -0.917969 -9.804688 L -0.964844 -9.675781 C -0.242188 -6.925781 0.304688 -1.777344 -0.144531 -0.433594 C -0.304688 0.0429688 -0.550781 0.203125 -0.984375 0.0585938 C -1.589844 -0.144531 -2.71875 -1.679688 -3.742188 -3.660156 C -3.773438 -3.71875 -3.800781 -3.777344 -3.886719 -3.804688 C -4.019531 -3.847656 -4.148438 -3.746094 -4.191406 -3.617188 C -4.21875 -3.53125 -4.234375 -3.488281 -4.207031 -3.429688 C -3.09375 -1.273438 -1.964844 0.257812 -1.144531 0.535156 C -0.449219 0.765625 0.128906 0.476562 0.375 -0.261719 Z M 0.375 -0.261719 "/></g></g></g><g fill="#6c63ff" fill-opacity="1"><g transform="translate(221.211208, 186.25231)"><g><path d="M 2 -5.839844 C 2.507812 -7.359375 2.191406 -11.898438 1.265625 -14.90625 C 1.238281 -14.964844 1.164062 -15.039062 1.078125 -15.066406 C 0.949219 -15.109375 0.832031 -15.050781 0.789062 -14.921875 C 0.761719 -14.835938 0.746094 -14.792969 0.773438 -14.734375 C 1.785156 -11.699219 1.925781 -7.359375 1.480469 -6.015625 C 1.230469 -5.277344 0.898438 -5.003906 0.335938 -5.191406 C -0.488281 -5.464844 -1.296875 -6.507812 -1.859375 -7.273438 C -2.191406 -7.722656 -2.394531 -7.984375 -2.570312 -8.042969 C -2.742188 -8.097656 -2.917969 -8.011719 -2.972656 -7.839844 C -3.046875 -7.621094 -2.875 -6.984375 -2.484375 -5.84375 C -3.046875 -5.742188 -3.324219 -5.496094 -3.539062 -4.847656 C -4.03125 -3.371094 -2.90625 1.34375 -1.433594 1.835938 C -1 1.980469 -0.636719 1.765625 -0.476562 1.285156 C -0.0742188 0.0703125 -1.167969 -3.28125 -1.863281 -5.539062 C -2.007812 -5.972656 -2.121094 -6.347656 -2.179688 -6.609375 C -2.238281 -6.726562 -2.152344 -6.839844 -2.0625 -6.667969 C -1.457031 -5.886719 -0.691406 -5.003906 0.175781 -4.714844 C 1.042969 -4.425781 1.652344 -4.800781 2 -5.839844 Z M -1 1.113281 C -1.070312 1.328125 -1.144531 1.402344 -1.273438 1.359375 C -2.3125 1.011719 -3.554688 -3.210938 -3.0625 -4.6875 C -2.902344 -5.164062 -2.773438 -5.265625 -2.367188 -5.324219 C -1.617188 -3.09375 -0.652344 0.0703125 -1 1.113281 Z M -1 1.113281 "/></g></g></g><g fill="#6c63ff" fill-opacity="1"><g transform="translate(225.441152, 173.587912)"><g><path d="M -0.40625 1.214844 C -0.347656 1.039062 -0.5625 0.535156 -0.738281 -0.101562 C -1.386719 -2.199219 -2.757812 -6.464844 -2.292969 -7.851562 C -2.238281 -8.027344 -2.09375 -8.027344 -2.003906 -7.996094 C -1.789062 -7.925781 -1.152344 -7.519531 -0.601562 -7.144531 C -0.0820312 -6.824219 0.4375 -6.507812 0.699219 -6.421875 C 1.21875 -6.246094 1.652344 -6.535156 1.855469 -7.140625 C 2.375 -8.703125 2.160156 -11.8125 1.308594 -15.039062 C 1.296875 -15.140625 1.222656 -15.210938 1.136719 -15.242188 C 1.007812 -15.285156 0.875 -15.183594 0.832031 -15.050781 L 0.789062 -14.921875 C 1.65625 -11.742188 1.855469 -8.734375 1.378906 -7.300781 C 1.261719 -6.953125 1.089844 -6.867188 0.871094 -6.941406 C 0.65625 -7.011719 0.207031 -7.257812 -0.300781 -7.621094 C -0.90625 -7.96875 -1.542969 -8.375 -1.933594 -8.503906 C -2.324219 -8.632812 -2.625 -8.445312 -2.773438 -8.011719 C -3.148438 -6.886719 -2.65625 -4.457031 -1.332031 -0.203125 C -1.273438 0.0585938 -1.460938 0.0429688 -1.5625 -0.0859375 C -2.585938 -1.492188 -4.132812 -4.082031 -4.855469 -6.25 C -4.882812 -6.308594 -4.957031 -6.378906 -5.042969 -6.410156 C -5.171875 -6.453125 -5.289062 -6.394531 -5.332031 -6.265625 C -5.359375 -6.179688 -5.375 -6.132812 -5.347656 -6.078125 C -4.277344 -2.921875 -1.519531 1.082031 -1 1.402344 C -0.753906 1.53125 -0.492188 1.476562 -0.40625 1.214844 Z M -0.40625 1.214844 "/></g></g></g><g fill="#6c63ff" fill-opacity="1"><g transform="translate(229.714555, 160.793401)"><g><path d="M 1.171875 1.402344 C 1.199219 1.316406 1.183594 1.214844 1.15625 1.15625 C 0.519531 0.320312 -0.015625 -0.535156 -0.476562 -1.460938 C -0.546875 -1.53125 -0.492188 -1.5625 -0.433594 -1.589844 C 0.492188 -1.765625 1.1875 -2.398438 1.519531 -3.398438 C 2.332031 -5.824219 1.683594 -9.078125 0.746094 -13.058594 C 0.714844 -13.113281 0.628906 -13.144531 0.542969 -13.171875 C 0.414062 -13.214844 0.296875 -13.160156 0.253906 -13.027344 C 0.226562 -12.941406 0.210938 -12.898438 0.238281 -12.839844 C 1.164062 -8.964844 1.78125 -5.914062 1 -3.570312 C 0.710938 -2.703125 0.144531 -2.167969 -0.707031 -2.066406 C -0.808594 -2.054688 -0.851562 -2.066406 -0.835938 -2.113281 C -1.777344 -3.917969 -2.425781 -5.726562 -2.742188 -6.941406 C -2.757812 -7.042969 -2.828125 -7.117188 -2.917969 -7.144531 C -3.046875 -7.1875 -3.21875 -7.101562 -3.265625 -6.972656 C -3.277344 -6.929688 -3.292969 -6.886719 -3.265625 -6.828125 C -2.988281 -5.625 -2.3125 -3.90625 -1.445312 -2.167969 C -1.429688 -2.070312 -1.445312 -2.023438 -1.53125 -2.054688 C -2.09375 -2.097656 -2.761719 -2.273438 -3.527344 -2.574219 C -3.65625 -2.621094 -3.832031 -2.53125 -3.875 -2.402344 C -3.917969 -2.273438 -3.832031 -2.097656 -3.699219 -2.054688 C -2.761719 -1.695312 -1.90625 -1.503906 -1.226562 -1.519531 C -1.140625 -1.488281 -1.097656 -1.476562 -1.070312 -1.417969 C -0.535156 -0.417969 0.0585938 0.550781 0.722656 1.445312 C 0.75 1.503906 0.792969 1.519531 0.835938 1.535156 C 0.96875 1.578125 1.128906 1.535156 1.171875 1.402344 Z M 1.171875 1.402344 "/></g></g></g><g fill="#6c63ff" fill-opacity="1"><g transform="translate(233.365053, 149.863856)"><g><path d="M 1.710938 -5.117188 C 2.214844 -6.636719 1.757812 -11.464844 0.976562 -14.183594 C 0.949219 -14.242188 0.917969 -14.300781 0.832031 -14.328125 C 0.703125 -14.375 0.542969 -14.328125 0.5 -14.199219 C 0.472656 -14.113281 0.457031 -14.070312 0.484375 -14.011719 C 1.292969 -11.234375 1.679688 -6.621094 1.230469 -5.277344 C 0.972656 -4.496094 0.609375 -4.28125 0.046875 -4.46875 C -0.777344 -4.742188 -1.542969 -6.058594 -2.0625 -6.957031 C -2.46875 -7.621094 -2.902344 -8.199219 -3.105469 -7.59375 C -3.191406 -7.332031 -2.902344 -6.609375 -2.238281 -4.84375 C -1.199219 -2.039062 -0.75 -0.492188 -0.925781 0.0273438 C -0.953125 0.113281 -1.054688 0.128906 -1.1875 0.0859375 C -1.75 -0.101562 -2.632812 -1.359375 -3.441406 -3.269531 C -3.46875 -3.328125 -3.496094 -3.386719 -3.585938 -3.414062 C -3.714844 -3.457031 -3.886719 -3.371094 -3.929688 -3.242188 C -3.960938 -3.15625 -3.929688 -3.097656 -3.902344 -3.039062 C -3.007812 -0.957031 -2.097656 0.359375 -1.316406 0.621094 C -0.925781 0.75 -0.578125 0.578125 -0.449219 0.1875 C -0.214844 -0.507812 -0.621094 -2.039062 -1.746094 -5.019531 C -1.964844 -5.667969 -1.890625 -5.597656 -1.558594 -5.148438 C -1.109375 -4.613281 -0.632812 -4.164062 -0.113281 -3.992188 C 0.753906 -3.703125 1.363281 -4.078125 1.710938 -5.117188 Z M 1.710938 -5.117188 "/></g></g></g></svg>